<svg width="27" height="27" viewBox="0 0 27 27" fill="none" xmlns="http://www.w3.org/2000/svg">
<path d="M22.9349 0.679932H4.20611C2.09157 0.679932 0.480499 2.29101 0.480499 4.40555V23.1343C0.480499 25.2489 2.09157 26.8599 4.20611 26.8599H22.9349C25.0494 26.8599 26.6605 25.2489 26.6605 23.1343V4.40555C26.6605 2.29101 25.0494 0.679932 22.9349 0.679932ZM13.5705 21.6239C17.9003 21.6239 21.4245 18.2004 21.4245 14.072C21.4245 13.3672 21.3238 12.5616 21.1224 11.9575H23.3376V22.6309C23.3376 23.1343 22.9349 23.6378 22.3307 23.6378H4.81027C4.30681 23.6378 3.80335 23.235 3.80335 22.6309V11.8568H6.11927C5.91789 12.5616 5.81719 13.2665 5.81719 13.9713C5.7165 18.2004 9.24073 21.6239 13.5705 21.6239ZM13.5705 18.6032C10.7511 18.6032 8.53588 16.3879 8.53588 13.6692C8.53588 10.9505 10.7511 8.73532 13.5705 8.73532C16.3899 8.73532 18.6051 10.9505 18.6051 13.6692C18.6051 16.4886 16.3899 18.6032 13.5705 18.6032ZM23.237 7.82908C23.237 8.43324 22.7335 8.9367 22.1293 8.9367H19.31C18.7058 8.9367 18.2023 8.43324 18.2023 7.82908V5.11039C18.2023 4.50624 18.7058 4.00278 19.31 4.00278H22.1293C22.7335 4.00278 23.237 4.50624 23.237 5.11039V7.82908Z" fill="white"/>
</svg>
