<svg width="20" height="21" viewBox="0 0 20 21" fill="none" xmlns="http://www.w3.org/2000/svg">
<path d="M19 10.2292C19 15.1998 14.9706 19.2292 10 19.2292M19 10.2292C19 5.25869 14.9706 1.22925 10 1.22925M19 10.2292H1M10 19.2292C5.02944 19.2292 1 15.1998 1 10.2292M10 19.2292C11.6569 19.2292 13 15.1998 13 10.2292C13 5.25869 11.6569 1.22925 10 1.22925M10 19.2292C8.34315 19.2292 7 15.1998 7 10.2292C7 5.25869 8.34315 1.22925 10 1.22925M1 10.2292C1 5.25869 5.02944 1.22925 10 1.22925" stroke="#9BA1A7" strokeWidth="2" stroke-linecap="round" stroke-linejoin="round"/>
</svg>
