<svg width="51" height="51" viewBox="0 0 51 51" fill="none" xmlns="http://www.w3.org/2000/svg">
<g clip-path="url(#clip0_95:22)">
<path d="M9.70723 39.1156C9.00723 39.1156 8.33432 39.2904 7.73732 39.6184C4.59248 35.5871 2.86633 30.5791 2.86633 25.4487C2.86633 12.7404 13.2049 2.40186 25.9132 2.40186C27.4582 2.40186 29.0023 2.55559 30.503 2.85886C31.031 2.96567 31.5468 2.62387 31.6536 2.09515C31.7604 1.56644 31.4186 1.05145 30.8899 0.94426C29.2621 0.615433 27.5879 0.44873 25.9132 0.44873C19.2356 0.44873 12.9574 3.04921 8.23552 7.77104C3.51369 12.4929 0.913208 18.7711 0.913208 25.4487C0.913208 31.0659 2.82056 36.5476 6.29308 40.9421C5.84599 41.6101 5.60567 42.3951 5.60567 43.2172C5.60567 44.3128 6.03253 45.3428 6.8073 46.1171C7.58168 46.8919 8.61165 47.3188 9.70723 47.3188C10.8028 47.3188 11.8328 46.8919 12.6075 46.1171C13.3823 45.3428 13.8088 44.3124 13.8088 43.2168C13.8088 42.1216 13.3823 41.0913 12.6075 40.3169C11.8328 39.5421 10.8028 39.1156 9.70723 39.1156ZM11.2262 44.7362C10.8207 45.1421 10.281 45.3656 9.70723 45.3656C9.1335 45.3656 8.5941 45.1421 8.18822 44.7362C7.78233 44.3303 7.55879 43.7909 7.55879 43.2172C7.55879 42.6431 7.78233 42.1037 8.18822 41.6978C8.59372 41.2919 9.1335 41.0688 9.70723 41.0688C10.281 41.0688 10.8204 41.2923 11.2262 41.6978C11.6321 42.1037 11.8557 42.6431 11.8557 43.2172C11.8557 43.7909 11.6321 44.3303 11.2262 44.7362Z" fill="white"/>
<path d="M45.5326 9.95424C46.5942 8.3616 46.4237 6.18417 45.0195 4.77998C44.2447 4.0056 43.2148 3.57874 42.1192 3.57874C41.0236 3.57874 39.9936 4.0056 39.2189 4.77998C38.4441 5.55475 38.0176 6.58472 38.0176 7.6803C38.0176 8.77588 38.4441 9.80585 39.2189 10.5806C39.9936 11.3554 41.0236 11.7819 42.1192 11.7819C42.8192 11.7819 43.4921 11.6071 44.0891 11.2791C47.2339 15.3108 48.9601 20.3184 48.9601 25.4488C48.9601 38.1571 38.6215 48.4957 25.9132 48.4957C24.3835 48.4957 22.8538 48.345 21.3672 48.0474C20.8385 47.9418 20.3239 48.2847 20.2179 48.8134C20.1122 49.3425 20.4551 49.8567 20.9838 49.9628C22.5963 50.2851 24.2549 50.4488 25.9132 50.4488C32.5908 50.4488 38.869 47.8483 43.5909 43.1265C48.3127 38.4046 50.9132 32.1264 50.9132 25.4488C50.9132 19.8313 49.0055 14.3492 45.5326 9.95424ZM40.6002 9.19969C40.1943 8.79381 39.9707 8.25441 39.9707 7.6803C39.9707 7.10657 40.1943 6.56717 40.6002 6.16129C41.0057 5.7554 41.5454 5.53186 42.1192 5.53186C42.6929 5.53186 43.2327 5.7554 43.6386 6.16129C44.4759 6.99899 44.4759 8.36198 43.6386 9.19969C43.2327 9.60519 42.6929 9.82874 42.1192 9.82874C41.5451 9.82874 41.0057 9.60519 40.6002 9.19969Z" fill="white"/>
<path d="M21.8833 42.2456C21.8833 42.785 22.3208 43.2222 22.8599 43.2222H28.9661C29.5054 43.2222 29.9426 42.785 29.9426 42.2456V40.3524C31.2266 40.0068 32.4542 39.4979 33.6078 38.8334L34.9444 40.17C35.1275 40.3531 35.3759 40.4561 35.6353 40.4561C35.8939 40.4561 36.1426 40.3531 36.3257 40.1696L40.6417 35.8506C41.0228 35.4692 41.0228 34.8508 40.6417 34.4697L39.3065 33.1346C39.9711 31.981 40.4799 30.7534 40.8256 29.4694H42.7115C43.2509 29.4694 43.6881 29.0323 43.6881 28.4929V22.3867C43.6881 21.8473 43.2509 21.4101 42.7115 21.4101H40.8252C40.4796 20.1265 39.9711 18.8989 39.3065 17.7453L40.6344 16.4174C40.8176 16.2343 40.9205 15.9856 40.9205 15.7266C40.9202 15.4676 40.8172 15.2189 40.6341 15.0358L36.3147 10.7198C35.9336 10.3387 35.3152 10.3387 34.9338 10.7202L33.6078 12.0466C32.4542 11.382 31.2266 10.8732 29.9426 10.5275V8.65186C29.9426 8.11246 29.5054 7.67529 28.9661 7.67529H22.8599C22.3208 7.67529 21.8833 8.11246 21.8833 8.65186V10.5279C20.5997 10.8732 19.3721 11.382 18.2185 12.0466L16.8922 10.7202C16.5111 10.3391 15.8927 10.3387 15.5112 10.7198L11.1922 15.0361C11.0087 15.2192 10.9057 15.4676 10.9057 15.7266C10.9057 15.9856 11.0087 16.2343 11.1918 16.4174L12.5197 17.7453C11.8552 18.8989 11.3463 20.1261 11.0007 21.4101H9.11818C8.57878 21.4101 8.14162 21.8473 8.14162 22.3863L8.13818 28.4925C8.1378 28.7515 8.2408 29.0002 8.42391 29.1833C8.60701 29.3664 8.85535 29.4694 9.11475 29.4694H11.0007C11.3463 30.7534 11.8552 31.981 12.5197 33.1346L11.1846 34.4697C10.8035 34.8508 10.8031 35.4692 11.1846 35.8506L15.5006 40.1696C15.6837 40.3528 15.932 40.4561 16.191 40.4561H16.1914C16.4504 40.4561 16.6987 40.3531 16.8819 40.17L18.2181 38.8334C19.3721 39.4979 20.5997 40.0068 21.8833 40.3524V42.2456ZM18.6011 36.7795C18.2147 36.5297 17.7062 36.5838 17.3804 36.9092L16.1914 38.0983L13.256 35.1606L14.4439 33.9723C14.7693 33.6469 14.8234 33.1384 14.5736 32.752C13.6882 31.3817 13.0656 29.8799 12.7238 28.2876C12.6269 27.8379 12.2294 27.5163 11.769 27.5163H10.0917L10.094 23.3632H11.769C12.2294 23.3632 12.6269 23.042 12.7238 22.5919C13.0656 21 13.6882 19.4982 14.5736 18.1279C14.8234 17.7415 14.7693 17.233 14.4439 16.9076L13.2636 15.727L16.2013 12.7916L17.3804 13.9711C17.7062 14.2965 18.2143 14.3503 18.6011 14.1008C19.971 13.2154 21.4728 12.5928 23.0651 12.251C23.5148 12.1541 23.8364 11.7563 23.8364 11.2962V9.62842H27.9895V11.2958C27.9895 11.7563 28.3107 12.1541 28.7608 12.2506C30.3527 12.5928 31.8549 13.215 33.2248 14.1004C33.6112 14.3503 34.1197 14.2965 34.4451 13.9707L35.6246 12.7916L38.5623 15.727L37.382 16.9072C37.0563 17.233 37.0025 17.7415 37.2523 18.1279C38.1377 19.4982 38.7599 21 39.1021 22.5919C39.1986 23.042 39.5965 23.3632 40.0569 23.3632H41.735V27.5163H40.0569C39.5965 27.5163 39.199 27.8379 39.1021 28.2876C38.7603 29.8795 38.1377 31.3817 37.2523 32.7516C37.0025 33.1384 37.0566 33.6469 37.382 33.9723L38.5699 35.1602L35.6345 38.0979L34.4455 36.9092C34.1197 36.5835 33.6112 36.5297 33.2248 36.7795C31.8545 37.6649 30.3527 38.2871 28.7608 38.6293C28.3107 38.7262 27.9895 39.1237 27.9895 39.5841V41.269H23.8364V39.5841C23.8364 39.124 23.5148 38.7262 23.0651 38.6293C21.4732 38.2875 19.9714 37.6649 18.6011 36.7795Z" fill="white"/>
<path d="M33.9825 25.4487C33.9825 20.9992 30.3627 17.3795 25.9132 17.3795C21.4638 17.3795 17.844 20.9992 17.844 25.4487C17.844 29.8981 21.4638 33.5179 25.9132 33.5179C30.3627 33.5179 33.9825 29.8981 33.9825 25.4487ZM19.7971 25.4487C19.7971 22.0761 22.5406 19.3326 25.9132 19.3326C29.2858 19.3326 32.0293 22.0765 32.0293 25.4487C32.0293 28.8209 29.2858 31.5648 25.9132 31.5648C22.5406 31.5648 19.7971 28.8213 19.7971 25.4487Z" fill="white"/>
<path d="M34.9053 4.14207C35.1624 4.14207 35.4142 4.03755 35.5957 3.85597C35.7773 3.67325 35.8818 3.42148 35.8818 3.16437C35.8818 2.90878 35.7777 2.65663 35.5957 2.47391C35.4142 2.29233 35.1624 2.18781 34.9053 2.18781C34.6474 2.18781 34.3968 2.29233 34.2152 2.47391C34.0332 2.65663 33.9287 2.90764 33.9287 3.16437C33.9287 3.42224 34.0332 3.67325 34.2152 3.85597C34.3968 4.03755 34.6474 4.14207 34.9053 4.14207Z" fill="white"/>
<path d="M16.9639 46.7729C16.7071 46.7729 16.455 46.8774 16.2734 47.059C16.0918 47.2406 15.9873 47.4927 15.9873 47.7495C15.9873 48.0073 16.0918 48.2583 16.2734 48.4399C16.455 48.6215 16.7071 48.726 16.9639 48.726C17.2206 48.726 17.4727 48.6215 17.6543 48.4399C17.8359 48.2583 17.9404 48.0062 17.9404 47.7495C17.9404 47.4927 17.8359 47.2406 17.6543 47.059C17.4727 46.8774 17.2206 46.7729 16.9639 46.7729Z" fill="white"/>
</g>
<defs>
<clipPath id="clip0_95:22">
<rect width="50" height="50" fill="white" transform="translate(0.913208 0.44873)"/>
</clipPath>
</defs>
</svg>
