<svg width="32" height="28" viewBox="0 0 32 28" fill="none" xmlns="http://www.w3.org/2000/svg">
<path d="M0.800089 13.576L7.88116 16.2164L10.6416 25.0977C10.7616 25.6978 11.4817 25.8178 11.9618 25.4578L15.9223 22.2173C16.2824 21.8572 16.8825 21.8572 17.3625 22.2173L24.4436 27.3781C24.9237 27.7381 25.6438 27.4981 25.7638 26.898L31.0446 1.69426C31.1646 1.09417 30.5645 0.49409 29.9644 0.734125L0.800089 12.0158C0.0799833 12.2558 0.0799833 13.336 0.800089 13.576ZM10.2815 14.8962L24.2035 6.37495C24.4436 6.25494 24.6836 6.61499 24.4436 6.73501L13.0419 17.4166C12.6819 17.7766 12.3218 18.2567 12.3218 18.8568L11.9618 21.7372C11.9618 22.0973 11.3617 22.2173 11.2416 21.7372L9.80141 16.4564C9.44136 15.8564 9.68143 15.1362 10.2815 14.8962Z" fill="#148E2D"/>
</svg>
