<svg width="58" height="58" viewBox="0 0 58 58" fill="none" xmlns="http://www.w3.org/2000/svg">
<path d="M18.668 20.7172C20.7915 20.7172 22.5195 18.9892 22.5195 16.8656C22.5195 15.2213 21.4836 13.8154 20.0304 13.2636C20.526 10.5843 21.8009 8.15758 23.747 6.21145C28.2048 1.75365 35.2783 0.994314 40.5671 4.40603C41.0928 4.74499 41.7942 4.59365 42.1331 4.06795C42.4725 3.54226 42.3212 2.84133 41.7955 2.50193C38.8192 0.582343 35.2287 -0.278329 31.686 0.0792146C28.092 0.441626 24.7037 2.05057 22.1447 4.60914C19.8052 6.94866 18.2954 9.88379 17.7546 13.1243C16.0705 13.5353 14.8164 15.0562 14.8164 16.8656C14.8164 18.9892 16.5439 20.7172 18.668 20.7172ZM18.668 15.2797C19.5424 15.2797 20.2539 15.9908 20.2539 16.8656C20.2539 17.74 19.5424 18.4516 18.668 18.4516C17.7931 18.4516 17.082 17.74 17.082 16.8656C17.082 15.9908 17.7931 15.2797 18.668 15.2797Z" fill="white"/>
<path d="M25.7051 26.8883C25.1878 26.5361 24.4829 26.6702 24.1311 27.1874C23.7789 27.7047 23.913 28.4092 24.4302 28.7614C27.1114 30.5859 30.1925 31.4784 33.2591 31.4784C37.3226 31.4784 41.36 29.9106 44.4031 26.868C46.7413 24.5298 48.2516 21.5933 48.7928 18.3533C50.4774 17.9422 51.7319 16.4209 51.7319 14.6115C51.7319 12.4879 50.0039 10.7599 47.8804 10.7599C45.7563 10.7599 44.0288 12.4879 44.0288 14.6115C44.0288 16.2558 45.0647 17.6621 46.5183 18.2134C46.0223 20.8932 44.7461 23.3208 42.8013 25.2656C38.2302 29.8367 31.0399 30.5191 25.7051 26.8883ZM47.8804 13.0255C48.7547 13.0255 49.4663 13.7371 49.4663 14.6115C49.4663 15.4858 48.7547 16.1974 47.8804 16.1974C47.006 16.1974 46.2944 15.4858 46.2944 14.6115C46.2944 13.7371 47.006 13.0255 47.8804 13.0255Z" fill="white"/>
<path d="M32.7077 24.6988C32.8829 24.8002 33.0785 24.8506 33.2741 24.8506C33.4697 24.8506 33.6653 24.8002 33.8405 24.6988L40.7507 20.7092C41.1012 20.507 41.3171 20.1326 41.3171 19.7282V11.7489C41.3171 11.344 41.1012 10.9701 40.7507 10.7679L33.8405 6.77828C33.4901 6.57561 33.0582 6.57561 32.7077 6.77828L25.7971 10.7679C25.4467 10.9701 25.2307 11.344 25.2307 11.7489V19.7282C25.2307 20.1326 25.4467 20.507 25.7971 20.7092L32.7077 24.6988ZM27.4968 13.711L32.1413 16.3926V21.7557L27.4968 19.0742V13.711ZM34.4069 21.7557V16.3926L39.0515 13.711V19.0742L34.4069 21.7557ZM33.2741 9.06736L37.9187 11.7489L33.2741 14.4305L28.6296 11.7489L33.2741 9.06736Z" fill="white"/>
<path d="M56.756 35.1065C56.687 33.8724 56.0785 32.7427 55.086 32.0063C53.4801 30.8147 51.2521 30.939 49.7883 32.3019L41.1763 40.3223C41.1604 38.5833 40.0028 37.0447 38.2925 36.5703L28.099 33.7418C24.5262 32.7506 20.7574 33.1666 17.4873 34.9127L10.144 38.8342L9.13682 37.827C8.44475 37.135 7.31902 37.135 6.62694 37.827L1.46469 42.9893C1.02219 43.4318 1.02219 44.1491 1.46469 44.5916C1.90719 45.0341 2.62449 45.0341 3.06655 44.5916L7.88188 39.7763L20.1242 52.019L16.0771 56.0662C15.635 56.5087 15.635 57.226 16.0771 57.668C16.2983 57.8893 16.5881 57.9999 16.878 57.9999C17.1678 57.9999 17.4581 57.8893 17.6794 57.668L22.0734 53.2735C22.454 52.893 22.6239 52.3814 22.5858 51.8827H35.2114C38.8979 51.8827 42.4144 50.4995 45.1128 47.9874L55.4409 38.3726C56.3453 37.531 56.8246 36.3402 56.756 35.1065ZM53.897 36.7146L43.5689 46.3289C41.2914 48.4493 38.3231 49.6171 35.2114 49.6171H20.9942C20.9725 49.6171 20.9512 49.6189 20.93 49.6202L11.8184 40.5086L18.5542 36.9119C21.3092 35.4406 24.4837 35.0906 27.4932 35.9251L37.6867 38.7536C38.4731 38.9718 38.9846 39.7192 38.9032 40.5307C38.8178 41.3892 38.1027 42.0361 37.2398 42.0361H24.2811C23.6558 42.0361 23.1487 42.5432 23.1483 43.1685C23.1483 43.7938 23.6549 44.3013 24.2802 44.3017L32.2227 44.3093H37.1942C39.1457 44.3093 41.0068 43.5769 42.4348 42.2468L51.3327 33.9604C51.9964 33.3418 53.0075 33.2856 53.7359 33.8264C54.1864 34.16 54.4625 34.6729 54.4935 35.2326C54.5249 35.7924 54.3076 36.3323 53.897 36.7146Z" fill="white"/>
<path d="M44.9192 8.05267C45.2174 8.05267 45.5095 7.93143 45.7201 7.72079C45.9312 7.50883 46.052 7.21767 46.052 6.91853C46.052 6.62073 45.9312 6.32956 45.7201 6.1176C45.5095 5.90697 45.2174 5.78705 44.9192 5.78705C44.6214 5.78705 44.3293 5.90697 44.1187 6.1176C43.9076 6.32867 43.7864 6.62073 43.7864 6.91853C43.7864 7.21767 43.9076 7.51016 44.1187 7.72079C44.3293 7.93143 44.6214 8.05267 44.9192 8.05267Z" fill="white"/>
<path d="M21.4155 23.1363C21.1164 23.1363 20.8252 23.2571 20.6146 23.4682C20.4026 23.6788 20.2827 23.9709 20.2827 24.2691C20.2827 24.5669 20.4026 24.8594 20.6146 25.0696C20.8252 25.2807 21.1164 25.4019 21.4155 25.4019C21.7133 25.4019 22.0045 25.2807 22.2165 25.0696C22.4271 24.8594 22.5483 24.5669 22.5483 24.2691C22.5483 23.9709 22.4271 23.6788 22.2165 23.4682C22.0058 23.2575 21.7133 23.1363 21.4155 23.1363Z" fill="white"/>
</svg>
