<svg width="66" height="58" viewBox="0 0 66 58" fill="none" xmlns="http://www.w3.org/2000/svg">
<path d="M22.0388 36.5266C23.7181 34.8473 23.7181 32.1143 22.0388 30.435C21.2251 29.6217 20.1436 29.1735 18.9931 29.1735C18.328 29.1735 17.6863 29.3239 17.1062 29.6076C15.0605 26.6808 13.983 23.2558 13.983 19.6534C13.983 10.4338 21.1852 2.79618 30.3792 2.26518C31.0044 2.22889 31.4814 1.69302 31.4456 1.0682C31.4093 0.442943 30.8734 -0.0327499 30.2486 0.00176542C19.8564 0.602244 11.7161 9.23419 11.7161 19.6534C11.7161 23.8103 12.9865 27.7588 15.3951 31.1125C14.2945 32.7834 14.4786 35.0579 15.9473 36.5266C16.7611 37.3399 17.8425 37.7881 18.9931 37.7881C20.1436 37.7881 21.2251 37.3399 22.0388 36.5266ZM17.55 32.0382C17.9479 31.6404 18.4705 31.4413 18.9931 31.4413C19.5152 31.4413 20.0378 31.6404 20.4356 32.0382C21.2312 32.8334 21.2312 34.1282 20.4356 34.9234C19.64 35.719 18.3457 35.719 17.55 34.9234C16.7549 34.1282 16.7549 32.8339 17.55 32.0382Z" fill="white"/>
<path d="M48.8771 39.271C48.1607 39.271 47.4872 39.4577 46.9027 39.7852C46.3845 38.1421 44.8464 36.9474 43.0343 36.9474C41.8878 36.9474 40.851 37.4257 40.1129 38.193C39.908 37.9806 39.6801 37.7908 39.4336 37.6266C42.0462 36.4571 44.3972 34.7198 46.2996 32.5192C49.3856 28.9482 51.0852 24.3789 51.0852 19.6534C51.0852 15.4987 49.8148 11.548 47.4067 8.19385C48.5072 6.52295 48.3231 4.24892 46.854 2.7798C45.1747 1.1005 42.4422 1.1005 40.7625 2.7798C39.0832 4.45911 39.0832 7.19202 40.7625 8.87133C41.6024 9.7112 42.7051 10.1311 43.8082 10.1311C44.4547 10.1311 45.1004 9.98555 45.6938 9.69704C47.7403 12.6247 48.8183 16.0523 48.8183 19.6534C48.8183 27.853 43.252 34.784 35.4033 36.6097V30.5085C39.8983 28.8491 42.9693 24.5041 42.9693 19.6534C42.9693 13.2747 37.7796 8.085 31.4004 8.085C25.0217 8.085 19.832 13.2743 19.832 19.6534C19.832 22.1708 20.6272 24.5648 22.1308 26.5755C23.4424 28.3292 25.2571 29.6912 27.2931 30.4682V47.1414L25.8691 44.8054C24.6726 42.8411 22.1746 42.2039 20.1829 43.3535C18.2886 44.4474 17.5496 46.8475 18.5058 48.8273L22.734 57.369C22.9318 57.7686 23.3335 58 23.7508 58C23.9199 58 24.0911 57.9624 24.2526 57.8823C24.8137 57.6044 25.0434 56.9243 24.7659 56.3636L20.5422 47.8317C20.1046 46.925 20.4444 45.8205 21.3166 45.3169C22.218 44.7965 23.392 45.0961 23.9336 45.9851L27.4586 51.7691C27.7232 52.2027 28.244 52.4076 28.733 52.2704C29.222 52.1333 29.56 51.6872 29.56 51.1788V25.1719C29.56 24.186 30.3623 23.3842 31.3482 23.3842C32.3341 23.3842 33.1364 24.186 33.1364 25.1719V29.6553C33.1359 29.6633 33.1364 29.6713 33.1364 29.6797V46.6993C33.1364 47.3254 33.6435 47.8326 34.2696 47.8326C34.8958 47.8326 35.4033 47.3254 35.4033 46.6993V41.0025C35.4033 40.0166 36.2051 39.2143 37.191 39.2143C38.1769 39.2143 38.9792 40.0166 38.9792 41.0025V47.1117C38.9792 47.7379 39.4867 48.2454 40.1124 48.2454C40.7386 48.2454 41.2461 47.7379 41.2461 47.1117V41.0025C41.2461 40.0166 42.0484 39.2143 43.0343 39.2143C44.0202 39.2143 44.822 40.0166 44.822 41.0025V47.1883C44.822 47.8144 45.3296 48.322 45.9557 48.322C46.5819 48.322 47.089 47.8144 47.089 47.1883V43.3261C47.089 42.3402 47.8912 41.5379 48.8771 41.5379C49.863 41.5379 50.6653 42.3402 50.6653 43.3261V56.8658C50.6653 57.492 51.1724 57.9995 51.7986 57.9995C52.4247 57.9995 52.9323 57.492 52.9323 56.8658V43.3261C52.9323 41.0901 51.1131 39.271 48.8771 39.271ZM42.3657 7.26857C41.5701 6.47295 41.5701 5.17862 42.3657 4.383C42.7635 3.98519 43.2857 3.7865 43.8082 3.7865C44.3308 3.7865 44.8534 3.98519 45.2513 4.383C46.0464 5.17862 46.0464 6.47295 45.2513 7.26857C44.4556 8.06376 43.1609 8.06376 42.3657 7.26857ZM22.099 19.6534C22.099 14.5243 26.2718 10.3515 31.4009 10.3515C36.5295 10.3515 40.7023 14.5243 40.7023 19.6534C40.7023 23.2651 38.5858 26.5286 35.4033 28.0513V25.1719C35.4033 24.5356 35.2555 23.9329 34.9927 23.3961C35.998 22.427 36.5923 21.0761 36.5923 19.6534C36.5923 16.7904 34.2634 14.4615 31.4009 14.4615C28.5378 14.4615 26.2089 16.7904 26.2089 19.6534C26.2089 21.0345 26.7714 22.3615 27.7382 23.3288C27.4546 23.882 27.2931 24.5086 27.2931 25.1719V28.0035C24.1367 26.4609 22.099 23.262 22.099 19.6534ZM29.2914 21.6792C28.7688 21.1384 28.4759 20.422 28.4759 19.6534C28.4759 18.0405 29.7879 16.7284 31.4004 16.7284C33.0133 16.7284 34.3254 18.0405 34.3254 19.6534C34.3254 20.4331 34.0085 21.1756 33.4696 21.7181C32.8518 21.3371 32.1252 21.1172 31.3482 21.1172C30.5977 21.1172 29.895 21.3225 29.2914 21.6792Z" fill="white"/>
<path d="M35.4144 2.67094C35.7126 2.67094 36.0051 2.5497 36.2158 2.33862C36.4268 2.12799 36.5481 1.83549 36.5481 1.53725C36.5481 1.23944 36.4268 0.946945 36.2158 0.73587C36.0051 0.525238 35.7126 0.403992 35.4144 0.403992C35.1166 0.403992 34.8241 0.525238 34.6134 0.73587C34.4024 0.946945 34.2811 1.23944 34.2811 1.53725C34.2811 1.83549 34.4024 2.12799 34.6134 2.33862C34.8241 2.5497 35.1166 2.67094 35.4144 2.67094Z" fill="white"/>
</svg>
